# xmcd CD database file
#
# Track frame offsets:
#	150
#	10587
#	20665
#	31133
#	40887
#	50792
#	60203
#	69612
#	79718
#	88993
#	99078
#	108654
#	120199
#	130375
#	141326
#	151694
#	161724
#	171001
#	181590
#	195820
#	205150
#	217860
#	227289
#
# Disc length: 3142 seconds
#
# Revision: 0
# Processed by: cddbd v1.5.2PL0 Copyright (c) Steve Scherf et al.
# Submitted via: CDex 1.80
#
DISCID=1a0c4417
DTITLE=Mel Tellis  - Sawmill
DYEAR=1900
DGENRE=Country
TTITLE0=Honky Tonk Song
TTITLE1=Case Of The Blues
TTITLE2=It Takes A Worried Man To Sing A Worried Song
TTITLE3=It's My Life
TTITLE4=If You'll Be My Love
TTITLE5=Juke Box Man
TTITLE6=This Heart
TTITLE7=Take My Hand
TTITLE8=Teenage Wedding
TTITLE9=Lonely Street
TTITLE10=No Song To Sing
TTITLE11=The Violet And The Rose
TTITLE12=You Are The Reason
TTITLE13=The Brooklyn Bridge
TTITLE14=Finally
TTITLE15=Georgia Town Blues
TTITLE16=Sawmill
TTITLE17=Till I Get Enough Of The Blues
TTITLE18=Loco Weed
TTITLE19=It's So Easy
TTITLE20=Walk On Boy
TTITLE21=Say
TTITLE22=If I Lost Your Love
EXTD=
EXTT0=
EXTT1=
EXTT2=
EXTT3=
EXTT4=
EXTT5=
EXTT6=
EXTT7=
EXTT8=
EXTT9=
EXTT10=
EXTT11=
EXTT12=
EXTT13=
EXTT14=
EXTT15=
EXTT16=
EXTT17=
EXTT18=
EXTT19=
EXTT20=
EXTT21=
EXTT22=
PLAYORDER=
